<svg xmlns="http://www.w3.org/2000/svg" xmlns:xlink="http://www.w3.org/1999/xlink" width="1920" zoomAndPan="magnify" viewBox="0 0 1440 809.999993" height="1080" preserveAspectRatio="xMidYMid meet" version="1.0"><defs><g/></defs><rect x="-144" width="1728" fill="#ffffff" y="-80.999999" height="971.999992" fill-opacity="1"/><rect x="-144" width="1728" fill="#adadaf" y="-80.999999" height="971.999992" fill-opacity="1"/><g fill="#151a27" fill-opacity="1"><g transform="translate(503.800757, 439.499998)"><g><path d="M 8.398438 0 L 55.5 0 L 55.5 -13.5 L 24.199219 -13.5 L 24.199219 -28.800781 L 51.699219 -28.800781 L 51.699219 -42.097656 L 24.199219 -42.097656 L 24.199219 -56.597656 L 54.398438 -56.597656 L 54.398438 -70 L 8.398438 -70 Z M 8.398438 0 "/></g></g></g><g fill="#151a27" fill-opacity="1"><g transform="translate(564.398421, 439.499998)"><g><path d="M 22.699219 0 L 37.898438 0 L 59.796875 -52.5 L 43.300781 -52.5 L 37.300781 -36 L 30.398438 -18.199219 L 23.398438 -36 L 17.5 -52.5 L 0.898438 -52.5 Z M 22.699219 0 "/></g></g></g><g fill="#151a27" fill-opacity="1"><g transform="translate(625.096085, 439.499998)"><g><path d="M 32.398438 1.398438 C 45.300781 1.398438 55.5 -5.199219 60.097656 -16.300781 L 44.699219 -16.300781 C 42.199219 -12.800781 37.699219 -10.800781 32.699219 -10.800781 C 25.800781 -10.800781 20.398438 -14.699219 19 -21.898438 L 61.097656 -21.898438 C 62 -41.097656 50.597656 -53.898438 32.597656 -53.898438 C 15.601562 -53.898438 3.898438 -42.597656 3.898438 -26.300781 C 3.898438 -9.898438 15.5 1.398438 32.398438 1.398438 Z M 19.097656 -31.5 C 20.800781 -37.898438 26 -41.800781 32.699219 -41.800781 C 39.699219 -41.800781 44.699219 -37.898438 46.398438 -31.5 Z M 19.097656 -31.5 "/></g></g></g><g fill="#151a27" fill-opacity="1"><g transform="translate(689.993581, 439.499998)"><g><path d="M 7.601562 0 L 22.800781 0 L 22.800781 -27.5 C 22.800781 -35.800781 27.398438 -40.898438 34.398438 -40.898438 C 40.898438 -40.898438 44.800781 -36.300781 44.800781 -28.597656 L 44.800781 0 L 60 0 L 60 -30.199219 C 60 -44.699219 51.699219 -53.898438 38 -53.898438 C 31 -53.898438 24.699219 -51.5 20.5 -46.597656 L 18.898438 -52.5 L 7.601562 -52.5 Z M 7.601562 0 "/></g></g></g><g fill="#151a27" fill-opacity="1"><g transform="translate(756.591027, 439.499998)"><g><path d="M 32.898438 0 L 42.5 0 L 42.5 -13.199219 L 36.199219 -13.199219 C 30.199219 -13.199219 27.398438 -16.097656 27.398438 -22.199219 L 27.398438 -40.097656 L 41.800781 -40.097656 L 41.800781 -52.5 L 27.398438 -52.5 L 27.398438 -66.097656 L 15.601562 -66.097656 L 14.699219 -59.296875 C 13.898438 -53.898438 12.398438 -52.5 6.699219 -52.5 L 2 -52.5 L 2 -40.097656 L 12.199219 -40.097656 L 12.199219 -19.898438 C 12.199219 -7.101562 19.597656 0 32.898438 0 Z M 32.898438 0 "/></g></g></g><g fill="#151a27" fill-opacity="1"><g transform="translate(803.289237, 439.499998)"><g><path d="M 33.398438 1.398438 C 50.796875 1.398438 62.796875 -9.898438 62.796875 -26.300781 C 62.796875 -42.597656 50.796875 -53.898438 33.398438 -53.898438 C 15.898438 -53.898438 3.898438 -42.597656 3.898438 -26.300781 C 3.898438 -9.898438 15.898438 1.398438 33.398438 1.398438 Z M 18.898438 -26.300781 C 18.898438 -34.898438 24.898438 -40.898438 33.398438 -40.898438 C 41.898438 -40.898438 47.796875 -34.898438 47.796875 -26.300781 C 47.796875 -17.699219 41.898438 -11.699219 33.398438 -11.699219 C 24.898438 -11.699219 18.898438 -17.699219 18.898438 -26.300781 Z M 18.898438 -26.300781 "/></g></g></g><g fill="#151a27" fill-opacity="1"><g transform="translate(869.986682, 439.499998)"><g/></g></g><g fill="#151a27" fill-opacity="1"><g transform="translate(893.485796, 439.499998)"><g><path d="M 18.699219 0 L 34.300781 0 L 34.300781 -70 L 22.398438 -70 L 21.199219 -66.097656 C 19.597656 -60.898438 16.597656 -59 10 -59 L 2.898438 -59 L 2.898438 -45.097656 L 18.699219 -45.097656 Z M 18.699219 0 "/></g></g></g></svg>