<svg xmlns="http://www.w3.org/2000/svg" xmlns:xlink="http://www.w3.org/1999/xlink" width="1920" zoomAndPan="magnify" viewBox="0 0 1440 809.999993" height="1080" preserveAspectRatio="xMidYMid meet" version="1.0"><defs><g/></defs><rect x="-144" width="1728" fill="#ffffff" y="-80.999999" height="971.999992" fill-opacity="1"/><rect x="-144" width="1728" fill="#adadaf" y="-80.999999" height="971.999992" fill-opacity="1"/><g fill="#151a27" fill-opacity="1"><g transform="translate(346.154286, 439.499998)"><g><path d="M 8.398438 0 L 54.898438 0 L 54.898438 -14.898438 L 24.300781 -14.898438 L 24.300781 -70 L 8.398438 -70 Z M 8.398438 0 "/></g></g></g><g fill="#151a27" fill-opacity="1"><g transform="translate(403.752065, 439.499998)"><g><path d="M 25.097656 1 C 32.898438 1 39.300781 -1.5 43.800781 -6.101562 L 45.5 0 L 56.796875 0 L 56.796875 -31.597656 C 56.796875 -45.5 47.398438 -53.898438 31.699219 -53.898438 C 18.300781 -53.898438 9.5 -47.5 7.601562 -36.097656 L 22.199219 -36.097656 C 23.097656 -39.800781 26.898438 -42.300781 31.800781 -42.300781 C 37.800781 -42.300781 41.898438 -38.898438 41.898438 -33.699219 L 41.898438 -31.300781 L 22.898438 -31.300781 C 12 -31.300781 5 -25 5 -15.300781 C 5 -5.199219 12.699219 1 25.097656 1 Z M 20 -15.898438 C 20 -19.5 23 -21.800781 27.597656 -21.800781 L 42 -21.800781 C 41.699219 -14.699219 36.199219 -9.898438 28.597656 -9.898438 C 23.398438 -9.898438 20 -12.300781 20 -15.898438 Z M 20 -15.898438 "/></g></g></g><g fill="#151a27" fill-opacity="1"><g transform="translate(467.149618, 439.499998)"><g><path d="M 7.601562 0 L 22.800781 0 L 22.800781 -27.5 C 22.800781 -35.800781 27.398438 -40.898438 34.398438 -40.898438 C 40.898438 -40.898438 44.800781 -36.300781 44.800781 -28.597656 L 44.800781 0 L 60 0 L 60 -30.199219 C 60 -44.699219 51.699219 -53.898438 38 -53.898438 C 31 -53.898438 24.699219 -51.5 20.5 -46.597656 L 18.898438 -52.5 L 7.601562 -52.5 Z M 7.601562 0 "/></g></g></g><g fill="#151a27" fill-opacity="1"><g transform="translate(533.747053, 439.499998)"><g><path d="M 3.800781 0 L 50 0 L 50 -12.5 L 23.800781 -12.5 L 49.398438 -42.199219 L 49.398438 -52.5 L 4.699219 -52.5 L 4.699219 -40.097656 L 29.699219 -40.097656 L 3.800781 -10.398438 Z M 3.800781 0 "/></g></g></g><g fill="#151a27" fill-opacity="1"><g transform="translate(587.544983, 439.499998)"><g><path d="M 25.097656 1 C 32.898438 1 39.300781 -1.5 43.800781 -6.101562 L 45.5 0 L 56.796875 0 L 56.796875 -31.597656 C 56.796875 -45.5 47.398438 -53.898438 31.699219 -53.898438 C 18.300781 -53.898438 9.5 -47.5 7.601562 -36.097656 L 22.199219 -36.097656 C 23.097656 -39.800781 26.898438 -42.300781 31.800781 -42.300781 C 37.800781 -42.300781 41.898438 -38.898438 41.898438 -33.699219 L 41.898438 -31.300781 L 22.898438 -31.300781 C 12 -31.300781 5 -25 5 -15.300781 C 5 -5.199219 12.699219 1 25.097656 1 Z M 20 -15.898438 C 20 -19.5 23 -21.800781 27.597656 -21.800781 L 42 -21.800781 C 41.699219 -14.699219 36.199219 -9.898438 28.597656 -9.898438 C 23.398438 -9.898438 20 -12.300781 20 -15.898438 Z M 20 -15.898438 "/></g></g></g><g fill="#151a27" fill-opacity="1"><g transform="translate(650.942525, 439.499998)"><g><path d="M 7.601562 0 L 22.800781 0 L 22.800781 -28.398438 C 22.800781 -36 27 -40.898438 33.5 -40.898438 C 39.800781 -40.898438 43.699219 -36.199219 43.699219 -28.800781 L 43.699219 0 L 58.699219 0 L 58.699219 -28.398438 C 58.699219 -36 62.898438 -40.898438 69.398438 -40.898438 C 75.699219 -40.898438 79.597656 -36.199219 79.597656 -28.800781 L 79.597656 0 L 94.796875 0 L 94.796875 -30.597656 C 94.796875 -45 86.199219 -53.898438 72.796875 -53.898438 C 64.796875 -53.898438 58.199219 -50.796875 53.898438 -45.300781 C 50.199219 -50.898438 44.097656 -53.898438 36.597656 -53.898438 C 29.898438 -53.898438 24.199219 -51.597656 20.398438 -47.097656 L 18.898438 -52.5 L 7.601562 -52.5 Z M 7.601562 0 "/></g></g></g><g fill="#151a27" fill-opacity="1"><g transform="translate(752.338592, 439.499998)"><g><path d="M 7.601562 0 L 22.800781 0 L 22.800781 -52.5 L 7.601562 -52.5 Z M 5.398438 -69.5 C 5.398438 -63.898438 9.398438 -60 15.199219 -60 C 21 -60 25 -63.898438 25 -69.5 C 25 -75.097656 21 -78.996094 15.199219 -78.996094 C 9.398438 -78.996094 5.398438 -75.097656 5.398438 -69.5 Z M 5.398438 -69.5 "/></g></g></g><g fill="#151a27" fill-opacity="1"><g transform="translate(782.737394, 439.499998)"><g><path d="M 32.398438 1.398438 C 45.300781 1.398438 55.5 -5.199219 60.097656 -16.300781 L 44.699219 -16.300781 C 42.199219 -12.800781 37.699219 -10.800781 32.699219 -10.800781 C 25.800781 -10.800781 20.398438 -14.699219 19 -21.898438 L 61.097656 -21.898438 C 62 -41.097656 50.597656 -53.898438 32.597656 -53.898438 C 15.601562 -53.898438 3.898438 -42.597656 3.898438 -26.300781 C 3.898438 -9.898438 15.5 1.398438 32.398438 1.398438 Z M 19.097656 -31.5 C 20.800781 -37.898438 26 -41.800781 32.699219 -41.800781 C 39.699219 -41.800781 44.699219 -37.898438 46.398438 -31.5 Z M 19.097656 -31.5 "/></g></g></g><g fill="#151a27" fill-opacity="1"><g transform="translate(847.634912, 439.499998)"><g><path d="M 7.601562 0 L 22.800781 0 L 22.800781 -27.5 C 22.800781 -35.800781 27.398438 -40.898438 34.398438 -40.898438 C 40.898438 -40.898438 44.800781 -36.300781 44.800781 -28.597656 L 44.800781 0 L 60 0 L 60 -30.199219 C 60 -44.699219 51.699219 -53.898438 38 -53.898438 C 31 -53.898438 24.699219 -51.5 20.5 -46.597656 L 18.898438 -52.5 L 7.601562 -52.5 Z M 7.601562 0 "/></g></g></g><g fill="#151a27" fill-opacity="1"><g transform="translate(914.232336, 439.499998)"><g><path d="M 32.898438 0 L 42.5 0 L 42.5 -13.199219 L 36.199219 -13.199219 C 30.199219 -13.199219 27.398438 -16.097656 27.398438 -22.199219 L 27.398438 -40.097656 L 41.800781 -40.097656 L 41.800781 -52.5 L 27.398438 -52.5 L 27.398438 -66.097656 L 15.601562 -66.097656 L 14.699219 -59.296875 C 13.898438 -53.898438 12.398438 -52.5 6.699219 -52.5 L 2 -52.5 L 2 -40.097656 L 12.199219 -40.097656 L 12.199219 -19.898438 C 12.199219 -7.101562 19.597656 0 32.898438 0 Z M 32.898438 0 "/></g></g></g><g fill="#151a27" fill-opacity="1"><g transform="translate(960.930545, 439.499998)"><g><path d="M 33.398438 1.398438 C 50.796875 1.398438 62.796875 -9.898438 62.796875 -26.300781 C 62.796875 -42.597656 50.796875 -53.898438 33.398438 -53.898438 C 15.898438 -53.898438 3.898438 -42.597656 3.898438 -26.300781 C 3.898438 -9.898438 15.898438 1.398438 33.398438 1.398438 Z M 18.898438 -26.300781 C 18.898438 -34.898438 24.898438 -40.898438 33.398438 -40.898438 C 41.898438 -40.898438 47.796875 -34.898438 47.796875 -26.300781 C 47.796875 -17.699219 41.898438 -11.699219 33.398438 -11.699219 C 24.898438 -11.699219 18.898438 -17.699219 18.898438 -26.300781 Z M 18.898438 -26.300781 "/></g></g></g><g fill="#151a27" fill-opacity="1"><g transform="translate(1027.627991, 439.499998)"><g/></g></g><g fill="#151a27" fill-opacity="1"><g transform="translate(1051.127059, 439.499998)"><g><path d="M 18.699219 0 L 34.300781 0 L 34.300781 -70 L 22.398438 -70 L 21.199219 -66.097656 C 19.597656 -60.898438 16.597656 -59 10 -59 L 2.898438 -59 L 2.898438 -45.097656 L 18.699219 -45.097656 Z M 18.699219 0 "/></g></g></g></svg>