<svg xmlns="http://www.w3.org/2000/svg" xmlns:xlink="http://www.w3.org/1999/xlink" width="1920" zoomAndPan="magnify" viewBox="0 0 1440 809.999993" height="1080" preserveAspectRatio="xMidYMid meet" version="1.0"><defs><g/></defs><rect x="-144" width="1728" fill="#ffffff" y="-80.999999" height="971.999992" fill-opacity="1"/><rect x="-144" width="1728" fill="#adadaf" y="-80.999999" height="971.999992" fill-opacity="1"/><g fill="#151a27" fill-opacity="1"><g transform="translate(495.503885, 439.499998)"><g><path d="M 0.898438 0 L 17.898438 0 L 22.597656 -12.101562 L 50.398438 -12.101562 L 55.097656 0 L 72.097656 0 L 44.300781 -70 L 28.699219 -70 Z M 26.699219 -24.597656 L 36.5 -50.199219 L 46.398438 -24.597656 Z M 26.699219 -24.597656 "/></g></g></g><g fill="#151a27" fill-opacity="1"><g transform="translate(568.501074, 439.499998)"><g><path d="M 7.601562 0 L 22.800781 0 L 22.800781 -23.199219 C 22.800781 -34.5 28.097656 -38.699219 36.800781 -38.699219 L 42.597656 -38.699219 L 42.597656 -52.5 L 36.898438 -52.5 C 29.199219 -52.5 24.300781 -50.398438 20.898438 -45.5 L 18.898438 -52.5 L 7.601562 -52.5 Z M 7.601562 0 "/></g></g></g><g fill="#151a27" fill-opacity="1"><g transform="translate(614.499305, 439.499998)"><g><path d="M 32.898438 0 L 42.5 0 L 42.5 -13.199219 L 36.199219 -13.199219 C 30.199219 -13.199219 27.398438 -16.097656 27.398438 -22.199219 L 27.398438 -40.097656 L 41.800781 -40.097656 L 41.800781 -52.5 L 27.398438 -52.5 L 27.398438 -66.097656 L 15.601562 -66.097656 L 14.699219 -59.296875 C 13.898438 -53.898438 12.398438 -52.5 6.699219 -52.5 L 2 -52.5 L 2 -40.097656 L 12.199219 -40.097656 L 12.199219 -19.898438 C 12.199219 -7.101562 19.597656 0 32.898438 0 Z M 32.898438 0 "/></g></g></g><g fill="#151a27" fill-opacity="1"><g transform="translate(661.197503, 439.499998)"><g><path d="M 7.601562 0 L 22.800781 0 L 22.800781 -52.5 L 7.601562 -52.5 Z M 5.398438 -69.5 C 5.398438 -63.898438 9.398438 -60 15.199219 -60 C 21 -60 25 -63.898438 25 -69.5 C 25 -75.097656 21 -78.996094 15.199219 -78.996094 C 9.398438 -78.996094 5.398438 -75.097656 5.398438 -69.5 Z M 5.398438 -69.5 "/></g></g></g><g fill="#151a27" fill-opacity="1"><g transform="translate(691.596328, 439.499998)"><g><path d="M 27.800781 1.398438 C 42 1.398438 50.597656 -4.800781 50.597656 -14.800781 C 50.597656 -23.398438 44.199219 -28.898438 31.199219 -31.5 C 22.199219 -33.300781 19.398438 -34.800781 19.398438 -38 C 19.398438 -41.097656 22.199219 -42.898438 26.699219 -42.898438 C 31.800781 -42.898438 34.898438 -40.597656 35.199219 -36.597656 L 49.699219 -36.597656 C 49 -47.699219 40.800781 -53.898438 26.800781 -53.898438 C 12.699219 -53.898438 4.699219 -48.199219 4.699219 -38 C 4.699219 -29.300781 10.699219 -24.097656 24.097656 -21.699219 C 32.199219 -20.300781 35.597656 -18.199219 35.597656 -14.898438 C 35.597656 -11.800781 32.800781 -9.898438 28 -9.898438 C 22.398438 -9.898438 19 -12.601562 18.898438 -16.898438 L 4 -16.898438 C 4 -5.898438 13.398438 1.398438 27.800781 1.398438 Z M 27.800781 1.398438 "/></g></g></g><g fill="#151a27" fill-opacity="1"><g transform="translate(746.294232, 439.499998)"><g><path d="M 32.898438 0 L 42.5 0 L 42.5 -13.199219 L 36.199219 -13.199219 C 30.199219 -13.199219 27.398438 -16.097656 27.398438 -22.199219 L 27.398438 -40.097656 L 41.800781 -40.097656 L 41.800781 -52.5 L 27.398438 -52.5 L 27.398438 -66.097656 L 15.601562 -66.097656 L 14.699219 -59.296875 C 13.898438 -53.898438 12.398438 -52.5 6.699219 -52.5 L 2 -52.5 L 2 -40.097656 L 12.199219 -40.097656 L 12.199219 -19.898438 C 12.199219 -7.101562 19.597656 0 32.898438 0 Z M 32.898438 0 "/></g></g></g><g fill="#151a27" fill-opacity="1"><g transform="translate(792.992441, 439.499998)"><g><path d="M 25.097656 1 C 32.898438 1 39.300781 -1.5 43.800781 -6.101562 L 45.5 0 L 56.796875 0 L 56.796875 -31.597656 C 56.796875 -45.5 47.398438 -53.898438 31.699219 -53.898438 C 18.300781 -53.898438 9.5 -47.5 7.601562 -36.097656 L 22.199219 -36.097656 C 23.097656 -39.800781 26.898438 -42.300781 31.800781 -42.300781 C 37.800781 -42.300781 41.898438 -38.898438 41.898438 -33.699219 L 41.898438 -31.300781 L 22.898438 -31.300781 C 12 -31.300781 5 -25 5 -15.300781 C 5 -5.199219 12.699219 1 25.097656 1 Z M 20 -15.898438 C 20 -19.5 23 -21.800781 27.597656 -21.800781 L 42 -21.800781 C 41.699219 -14.699219 36.199219 -9.898438 28.597656 -9.898438 C 23.398438 -9.898438 20 -12.300781 20 -15.898438 Z M 20 -15.898438 "/></g></g></g><g fill="#151a27" fill-opacity="1"><g transform="translate(856.390006, 439.499998)"><g/></g></g><g fill="#151a27" fill-opacity="1"><g transform="translate(879.889119, 439.499998)"><g><path d="M 2.699219 -12.800781 L 37.699219 -12.800781 L 37.699219 0 L 53.296875 0 L 53.296875 -12.800781 L 62.097656 -12.800781 L 62.097656 -26.597656 L 53.296875 -26.597656 L 53.296875 -45.800781 L 40.898438 -45.800781 L 38.5 -26.300781 L 21.097656 -26.300781 L 42.597656 -70 L 25.300781 -70 L 2.699219 -23.898438 Z M 2.699219 -12.800781 "/></g></g></g></svg>